<svg width="38" height="38" viewBox="0 0 38 38" fill="none" xmlns="http://www.w3.org/2000/svg">
<circle cx="19" cy="19" r="19" fill="#EDE6E5"/>
<g clip-path="url(#clip0_1061_1673)">
<path d="M19.3593 20.6988V18.2395H27.646C27.727 18.6678 27.769 19.1748 27.769 19.7238C27.769 21.5688 27.265 23.8503 25.639 25.4755C24.058 27.1217 22.0383 28 19.3623 28C14.4018 28 10.231 23.9598 10.231 19C10.231 14.0402 14.4018 10 19.3623 10C22.1065 10 24.061 11.077 25.5295 12.4802L23.794 14.215C22.741 13.2272 21.3138 12.4592 19.3593 12.4592C15.7375 12.4592 12.9048 15.3783 12.9048 19C12.9048 22.6217 15.7375 25.5408 19.3593 25.5408C21.7083 25.5408 23.0463 24.5972 23.9035 23.74C24.5988 23.0448 25.0563 22.0518 25.2363 20.6957L19.3593 20.6988Z" fill="black"/>
</g>
<defs>
<clipPath id="clip0_1061_1673">
<rect width="18" height="18" fill="white" transform="translate(10 10)"/>
</clipPath>
</defs>
</svg>
