<svg width="164" height="48" viewBox="0 0 164 48" fill="none" xmlns="http://www.w3.org/2000/svg">
<rect width="164" height="48" rx="24" fill="#7B61FF"/>
<path d="M133 33C138.523 33 143 28.5228 143 23C143 17.4772 138.523 13 133 13C127.477 13 123 17.4772 123 23C123 28.5228 127.477 33 133 33Z" stroke="white" stroke-width="2" stroke-linecap="round" stroke-linejoin="round"/>
<path d="M131 19L137 23L131 27V19Z" stroke="white" stroke-width="2" stroke-linecap="round" stroke-linejoin="round"/>
<path d="M20.125 29V18.35H22.51V26.72H26.92V29H20.125ZM28.4014 29V18.35H30.7864V29H28.4014ZM36.5853 29.18C35.3453 29.18 34.3453 28.82 33.5853 28.1C32.8253 27.38 32.4253 26.54 32.3853 25.58H34.7703C34.8503 26.02 35.0503 26.365 35.3703 26.615C35.7003 26.855 36.1053 26.975 36.5853 26.975C36.9953 26.975 37.3253 26.89 37.5753 26.72C37.8353 26.55 37.9653 26.32 37.9653 26.03C37.9653 25.52 37.5003 25.135 36.5703 24.875L35.5353 24.605C34.6453 24.365 33.9453 23.975 33.4353 23.435C32.9253 22.895 32.6653 22.22 32.6553 21.41C32.6553 20.42 32.9853 19.635 33.6453 19.055C34.3153 18.465 35.2053 18.17 36.3153 18.17C37.4353 18.17 38.3453 18.51 39.0453 19.19C39.7453 19.86 40.1153 20.63 40.1553 21.5H37.7853C37.6753 21.11 37.4853 20.825 37.2153 20.645C36.9453 20.465 36.6453 20.375 36.3153 20.375C35.9453 20.375 35.6453 20.45 35.4153 20.6C35.1853 20.75 35.0653 20.965 35.0553 21.245C35.0453 21.525 35.1453 21.755 35.3553 21.935C35.5753 22.115 35.9053 22.265 36.3453 22.385L37.5603 22.7C38.4503 22.94 39.1403 23.335 39.6303 23.885C40.1303 24.435 40.3803 25.125 40.3803 25.955C40.3803 26.875 40.0303 27.645 39.3303 28.265C38.6303 28.875 37.7153 29.18 36.5853 29.18ZM43.7393 29V20.63H41.0243V18.35H48.8843V20.63H46.1393V29H43.7393ZM50.3447 29V18.35H57.0947V20.63H52.7297V22.535H56.1947V24.815H52.7297V26.72H57.0947V29H50.3447ZM68.5441 29H66.4891L61.2991 22.415V29H58.9141V18.35H60.9691L66.1441 24.935V18.35H68.5441V29ZM83.7931 29H81.7381L76.5481 22.415V29H74.1631V18.35H76.2181L81.3931 24.935V18.35H83.7931V29ZM88.743 25.925C89.353 26.555 90.088 26.87 90.948 26.87C91.808 26.87 92.538 26.555 93.138 25.925C93.738 25.295 94.038 24.545 94.038 23.675C94.038 22.805 93.738 22.055 93.138 21.425C92.538 20.795 91.808 20.48 90.948 20.48C90.088 20.48 89.353 20.795 88.743 21.425C88.143 22.055 87.843 22.805 87.843 23.675C87.843 24.545 88.143 25.295 88.743 25.925ZM94.833 27.56C93.763 28.64 92.468 29.18 90.948 29.18C89.428 29.18 88.128 28.645 87.048 27.575C85.978 26.495 85.443 25.195 85.443 23.675C85.443 22.155 85.978 20.86 87.048 19.79C88.128 18.71 89.428 18.17 90.948 18.17C92.468 18.17 93.763 18.71 94.833 19.79C95.913 20.87 96.453 22.165 96.453 23.675C96.453 25.185 95.913 26.48 94.833 27.56ZM106.352 29L104.087 23.795L101.822 29H99.5568L97.0968 18.35H99.6468L101.102 25.1L104.087 18.17L107.087 25.1L108.542 18.35H111.092L108.617 29H106.352Z" fill="white"/>
</svg>
